Coordinates
version=1
nRows=14
nColumns=40
inDegrees=yes

Units are S.I. units (second, meters, Newtons, ...)
Angles are in degrees.

endheader
time	pelvis_tilt	pelvis_list	pelvis_rotation	pelvis_tx	pelvis_ty	pelvis_tz	hip_flexion_r	hip_adduction_r	hip_rotation_r	knee_angle_r	knee_angle_r_beta	ankle_angle_r	subtalar_angle_r	mtp_angle_r	hip_flexion_l	hip_adduction_l	hip_rotation_l	knee_angle_l	knee_angle_l_beta	ankle_angle_l	subtalar_angle_l	mtp_angle_l	lumbar_extension	lumbar_bending	lumbar_rotation	arm_flex_r	arm_add_r	arm_rot_r	elbow_flex_r	pro_sup_r	wrist_flex_r	wrist_dev_r	arm_flex_l	arm_add_l	arm_rot_l	elbow_flex_l	pro_sup_l	wrist_flex_l	wrist_dev_l
     29.34000000	     -4.33387155	     -5.50281705	      3.71041586	      1.01998993	      0.92696310	      0.46612143	     15.01415817	      3.22145495	    -17.63677627	     18.93011746	     18.93011746	     10.77439923	     -1.03883132	     -2.95467693	     32.73377206	    -13.24033527	     -0.01987135	     68.67934134	     68.67934134	      8.54093680	    -18.39469983	     11.09699587	    -12.09418060	      6.64959453	      3.31501321	     15.56844786	    -18.41379586	     -1.12576707	     43.98335631	     45.73337713	      0.00000000	      0.00000000	      2.45471349	     -9.69149453	     -6.31302416	     63.81662106	     46.46482746	      0.00000000	      0.00000000
     29.35242857	     -4.49239735	     -5.44404974	      3.88484889	      1.01812449	      0.92780288	      0.46663359	     14.12157085	      3.37996696	    -17.84592786	     17.70638518	     17.70638518	     10.79793489	     -0.47974637	     -2.87085216	     34.21280834	    -13.17559086	     -0.20132356	     67.31267845	     67.31267845	      8.70638745	    -18.57633854	     11.50262915	    -12.08408085	      6.53274910	      2.88130276	     18.05246008	    -18.16327707	     -1.10545848	     45.15694871	     45.70242631	      0.00000000	      0.00000000	      1.28710839	     -9.55332071	     -5.86741522	     61.47668466	     46.40138337	      0.00000000	      0.00000000
     29.36485714	     -4.54891729	     -5.46376793	      4.02504407	      1.01632483	      0.92853386	      0.46717371	     13.24662074	      3.60623247	    -18.05127137	     16.70806260	     16.70806260	     10.84417097	     -0.01064072	     -2.93427820	     35.45694065	    -13.22359587	     -0.42939797	     65.77701596	     65.77701596	      8.89044528	    -18.68111385	     12.00779570	    -12.20030467	      6.56780731	      2.55080847	     20.58641522	    -17.96835661	     -0.92084378	     46.36950314	     45.66261914	      0.00000000	      0.00000000	      0.40490494	     -9.35443615	     -5.42534001	     58.44706188	     46.33376660	      0.00000000	      0.00000000
     29.37728571	     -4.67602949	     -5.45979384	      4.12871190	      1.01446177	      0.92903287	      0.46756538	     12.51848152	      3.76445996	    -18.24858320	     15.82718659	     15.82718659	     10.73753045	      0.46867329	     -3.53732671	     36.67663153	    -13.17639643	     -0.64073055	     64.10348127	     64.10348127	      9.26782155	    -18.73074081	     13.20153951	    -12.16007573	      6.59315900	      3.00329048	     22.67420745	    -18.49101463	     -0.00563218	     47.20167986	     45.59965553	      0.00000000	      0.00000000	      0.92498038	     -8.68788118	     -4.90353647	     52.85343845	     46.27005838	      0.00000000	      0.00000000
     29.38971429	     -4.72290503	     -5.48206179	      4.24119898	      1.01275010	      0.92954863	      0.46797499	     11.66151965	      4.01165123	    -18.28099280	     14.85448751	     14.85448751	     10.76185426	      0.76807392	     -3.53756335	     37.61829820	    -13.14727068	     -0.86069214	     62.11797496	     62.11797496	      9.36808598	    -18.80706513	     13.72751336	    -12.32549699	      6.60013025	      2.73832262	     24.92691462	    -18.25457069	      0.00965854	     48.69150277	     45.55683616	      0.00000000	      0.00000000	     -0.15166485	     -8.55059344	     -4.52635429	     50.81798479	     46.21545961	      0.00000000	      0.00000000
     29.40214286	     -4.85007163	     -5.51141477	      4.32457746	      1.01097729	      0.92975689	      0.46820772	     10.96074898	      4.21123631	    -18.39839340	     13.98482697	     13.98482697	     10.61537477	      1.12278601	     -4.18623696	     38.55169473	    -13.05209927	     -1.02396168	     59.98907733	     59.98907733	      9.71725443	    -18.82119335	     14.87203063	    -12.33874871	      6.66297226	      3.16202390	     26.71023346	    -18.70518960	      0.61035356	     50.20656583	     45.48574910	      0.00000000	      0.00000000	      0.14517404	     -8.04236332	     -3.96987914	     46.12032953	     46.15721349	      0.00000000	      0.00000000
     29.41457143	     -4.96687985	     -5.54101362	      4.40047956	      1.00927521	      0.92989035	      0.46836149	     10.25470561	      4.42318989	    -18.40165683	     13.13924743	     13.13924743	     10.66991068	      1.41164428	     -4.19188473	     39.28788019	    -12.90071085	     -1.13888354	     57.54503875	     57.54503875	      9.76699715	    -18.84017212	     15.27425038	    -12.44789295	      6.68121244	      2.96335526	     28.77733611	    -18.39909626	      0.54323549	     51.67682862	     45.44735528	      0.00000000	      0.00000000	     -0.95747131	     -7.92690240	     -3.68925717	     44.56437507	     46.11012608	      0.00000000	      0.00000000
     29.42700000	     -5.14202907	     -5.62847413	      4.46193778	      1.00755700	      0.92974294	      0.46833092	      9.65608905	      4.64672469	    -18.54881822	     12.35878370	     12.35878370	     10.57096783	      1.85305963	     -4.75763012	     39.98823574	    -12.71910176	     -1.12678985	     54.92835619	     54.92835619	      9.86148232	    -18.78851239	     15.62076164	    -12.44289236	      6.79772109	      3.26248026	     30.42062659	    -18.68983453	      0.90109251	     53.47151574	     45.38084796	      0.00000000	      0.00000000	     -1.01661875	     -7.54400695	     -3.24270763	     40.90140389	     46.05506782	      0.00000000	      0.00000000
     29.43942857	     -5.29670029	     -5.68128675	      4.49691023	      1.00586194	      0.92953935	      0.46819647	      9.08649669	      4.82876531	    -18.55172554	     11.69631018	     11.69631018	     10.66469214	      2.13216714	     -4.83127929	     40.48232969	    -12.42773659	     -1.02573353	     52.05882167	     52.05882167	      9.94915957	    -18.70660433	     15.83464678	    -12.52217037	      6.84612032	      3.12961153	     32.29656431	    -18.34765714	      0.83948074	     54.98979713	     45.34067614	      0.00000000	      0.00000000	     -2.08743301	     -7.44914572	     -3.03541468	     39.61279616	     46.01538040	      0.00000000	      0.00000000
     29.45185714	     -5.48149093	     -5.76048398	      4.52021740	      1.00425708	      0.92917641	      0.46797750	      8.57832373	      5.01137191	    -18.64412216	     11.10558784	     11.10558784	     10.76362176	      2.48491393	     -4.97340479	     40.87421316	    -12.11409434	     -0.82531580	     48.99734288	     48.99734288	      9.90497871	    -18.50194671	     15.93358723	    -12.51669039	      6.90649554	      3.09843868	     34.02263312	    -18.05491693	      0.86660981	     56.50115181	     45.29661622	      0.00000000	      0.00000000	     -3.05331155	     -7.33844738	     -2.83214140	     38.25685935	     45.97619315	      0.00000000	      0.00000000
     29.46428571	     -5.70788440	     -5.86560991	      4.51220298	      1.00268414	      0.92861776	      0.46755930	      8.09936174	      5.17747310	    -18.92076347	     10.48693688	     10.48693688	     10.70074455	      3.24902878	     -5.61347660	     41.09779460	    -11.78616150	     -0.54846905	     45.68245275	     45.68245275	      9.48281392	    -18.16805547	     14.38502708	    -12.57569336	      7.01540692	      3.52078294	     35.10731185	    -18.43308287	      1.30379431	     59.28704689	     45.19900597	      0.00000000	      0.00000000	     -3.18482543	     -7.07276265	     -2.38872229	     35.39203198	     45.92081159	      0.00000000	      0.00000000
     29.47671429	     -5.93670113	     -5.95953614	      4.47200432	      1.00123711	      0.92803535	      0.46711325	      7.68586802	      5.34687440	    -18.88359172	     10.01715393	     10.01715393	     10.86684465	      3.51260916	     -5.67749457	     41.19452681	    -11.41527758	     -0.17866384	     42.32266713	     42.32266713	      9.57114990	    -17.61524844	     14.52474988	    -12.53394347	      7.08688781	      3.45918317	     36.69347643	    -18.02668332	      1.21872470	     60.67360850	     45.16448099	      0.00000000	      0.00000000	     -4.28400777	     -7.00363543	     -2.23954485	     34.65331239	     45.88612265	      0.00000000	      0.00000000
     29.48914286	     -6.23212844	     -6.12506665	      4.41155254	      0.99990959	      0.92713906	      0.46656795	      7.38643764	      5.55841980	    -18.91614383	      9.64081231	      9.64081231	     11.06564105	      3.81558223	     -5.78487738	     41.28212102	    -11.13590441	      0.22278950	     39.03035610	     39.03035610	      9.81782887	    -16.68231962	     14.62367007	    -12.39707676	      7.23149991	      3.59825300	     38.21499940	    -17.81156407	      1.16276794	     61.87371637	     45.13408471	      0.00000000	      0.00000000	     -5.24109603	     -6.85535438	     -2.11433390	     34.06827787	     45.85610352	      0.00000000	      0.00000000
     29.50157143	     -6.31470060	     -6.26258440	      4.35976677	      0.99906130	      0.92659102	      0.46598419	      6.68955024	      5.78383556	    -19.07250141	      9.01872077	      9.01872077	     11.20252237	      4.53802971	     -5.87750466	     40.91907258	    -10.91198903	      0.46663161	     35.66084003	     35.66084003	      9.85676511	    -15.59028198	     14.45686320	    -12.52865102	      7.33216231	      3.21787992	     39.47597095	    -17.00886169	      1.34647652	     63.95640819	     45.06511765	      0.00000000	      0.00000000	     -6.41168795	     -6.89054609	     -1.87941574	     33.15223031	     45.80838311	      0.00000000	      0.00000000
